<?xml version="1.0" encoding="UTF-8"?><svg id="a" xmlns="http://www.w3.org/2000/svg" viewBox="0 0 233 243.94"><defs><style>.b{fill:#0098d8;}</style></defs><path class="b" d="M113.91,166.59l2.61,1.05,2.61-1.05c18.84-7.57,34.97-20.41,46.65-37.13,12.26-17.54,18.74-38.17,18.74-59.65V34.34l-5.95-.91c-23.55-3.61-46.3-12.98-58.62-19.91l-3.43-1.93-3.43,1.93c-12.32,6.93-35.07,16.3-58.62,19.91l-5.95,.91v35.48c0,21.48,6.48,42.1,18.74,59.65,11.68,16.72,27.81,29.56,46.65,37.13ZM54.01,39.04l1.29-.2c24.28-3.72,47.75-13.4,60.48-20.55l.75-.42,.75,.42c12.73,7.15,36.2,16.82,60.48,20.55l1.29,.2v30.77c0,20.35-6.14,39.89-17.75,56.51-11.07,15.84-26.35,28.01-44.2,35.18l-.57,.23-.57-.23c-17.85-7.17-33.13-19.34-44.2-35.18-11.61-16.62-17.75-36.16-17.75-56.51v-30.77Z"/><path class="b" d="M80.5,174.68c8.32-3.89,2.9-19.08-1.34-23.46-.54,4.9-4.6,14.73-1.89,20.31-5.65-2.55-15.36,1.78-20.25,2.46,4.5,4.12,19.83,9.11,23.49,.69h0c-.19-.09-.38-.19-.56-.29,.18,.1,.37,.2,.56,.29h0Zm-1.96-1.34c.27,.26,.56,.51,.89,.74-.33-.22-.62-.47-.89-.74Z"/><path class="b" d="M45.86,162.03c3.91,4.6,18.38,11.37,22.99,3.54,8.43-3.41,3.86-18.72-.11-23.26-.77,4.7-5.08,13.85-3.1,19.54-5.34-2.81-15.03,.11-19.79,.18Z"/><path class="b" d="M58.78,154.95c8.52-2.61,5.38-17.94,1.89-22.72-1.12,4.39-5.85,12.57-4.81,18.29-4.85-3.2-14.24-2.06-18.71-2.75,3.03,5.08,15.89,14,21.64,7.18Z"/><path class="b" d="M51.63,143.86c7.54-2.57,4.29-16.19,1.04-20.36-.83,3.77-4.5,10.71-3.9,15.76-4.25-2.78-12.11-2.56-15.85-3.48,2.3,4.76,13.07,13.71,18.71,8.09Z"/><path class="b" d="M45.13,132.23c6.41-1.46,4.92-12.92,2.61-16.63-1.01,3.02-4.63,8.41-4.56,12.6-3.25-2.65-9.72-3.15-12.72-4.23,1.48,4.11,9.55,12.38,14.67,8.25Z"/><path class="b" d="M40.45,119.98c6.29-.69,6.13-11.81,4.33-15.6-1.26,2.7-5.14,7.29-5.71,11.23-2.74-2.9-8.54-4.42-11.13-5.9,.71,4.14,6.98,13.33,12.52,10.27Z"/><path class="b" d="M37.14,108.86c5.68-.08,6.49-10.04,5.21-13.59-1.35,2.28-5.13,5.99-6.04,9.43-2.17-2.83-7.08-4.79-9.21-6.38,.18,3.77,4.76,12.65,10.04,10.53Z"/><path class="b" d="M35.15,97.81c5.31,.64,7.31-8.55,6.55-12.02-1.49,1.89-5.26,4.74-6.67,7.72-1.57-2.9-5.48-5.54-7.07-7.36-.57,3.51,1.91,12.57,7.18,11.65Z"/><path class="b" d="M34.24,87.45c4.33,1.16,7.07-6.22,6.85-9.19-1.49,1.43-5.08,3.39-6.54,5.77-1.01-2.6-4.19-5.19-5.4-6.86-.74,2.88,.62,10.63,5.09,10.27Z"/><path class="b" d="M34.43,78.12c3.94,.79,5.97-5.96,5.62-8.6-1.18,1.28-3.98,3.08-5.29,5.12-.91-2.25-3.33-4.55-4.25-6.02-.84,2.53-.1,9.54,3.92,9.5Z"/><path class="b" d="M34.91,69.27c3.4-1.31,1.82-9.52,.07-11.78-1.91,2.22-4.19,10.49-.07,11.78Z"/><path class="b" d="M90.92,181.7c7.33-2.84,3.62-16.15,.25-20.14-.81,4.46-5.43,13.52-2.32,18.28-5.72-3.07-15.25,3.7-20.14,5.35,4.95,3.07,20.22,5.03,22.21-3.48Z"/><path class="b" d="M155.79,171.53c2.7-5.58-1.35-15.41-1.89-20.31-4.25,4.38-9.66,19.57-1.34,23.46h0c.09-.04,.18-.09,.27-.14-.09,.05-.18,.1-.27,.14h0c3.65,8.42,18.99,3.44,23.49-.69-4.89-.68-14.6-5.01-20.25-2.46Zm-2.16,2.54c.33-.22,.62-.47,.89-.74-.27,.26-.56,.51-.89,.74Z"/><path class="b" d="M164.31,142.31c-3.97,4.55-8.54,19.85-.11,23.26,4.62,7.83,19.08,1.06,22.99-3.54-4.76-.07-14.45-2.98-19.79-.18,1.99-5.7-2.33-14.85-3.1-19.54Z"/><path class="b" d="M172.39,132.23c-3.49,4.78-6.63,20.11,1.89,22.72,5.74,6.81,18.61-2.1,21.64-7.18-4.47,.69-13.86-.45-18.71,2.75,1.04-5.72-3.7-13.91-4.81-18.29Z"/><path class="b" d="M180.39,123.5c-3.25,4.17-6.5,17.79,1.04,20.36,5.65,5.62,16.41-3.32,18.71-8.09-3.75,.92-11.6,.71-15.85,3.48,.6-5.04-3.07-11.99-3.9-15.76Z"/><path class="b" d="M185.31,115.61c-2.31,3.71-3.8,15.17,2.61,16.63,5.12,4.13,13.19-4.14,14.67-8.25-3,1.08-9.47,1.58-12.72,4.23,.06-4.19-3.55-9.58-4.56-12.6Z"/><path class="b" d="M193.99,115.61c-.57-3.95-4.45-8.53-5.71-11.23-1.8,3.8-1.96,14.91,4.33,15.6,5.54,3.05,11.8-6.13,12.52-10.27-2.59,1.48-8.4,3-11.13,5.9Z"/><path class="b" d="M195.91,108.86c5.28,2.12,9.86-6.76,10.04-10.53-2.12,1.59-7.04,3.55-9.21,6.38-.91-3.45-4.69-7.15-6.04-9.43-1.28,3.55-.48,13.51,5.21,13.59Z"/><path class="b" d="M197.91,97.81c5.27,.92,7.75-8.14,7.18-11.65-1.59,1.81-5.5,4.45-7.07,7.36-1.41-2.98-5.18-5.83-6.67-7.72-.75,3.47,1.24,12.66,6.55,12.02Z"/><path class="b" d="M198.82,87.45c4.46,.36,5.83-7.39,5.09-10.27-1.21,1.67-4.39,4.25-5.4,6.86-1.46-2.38-5.05-4.35-6.54-5.77-.21,2.97,2.53,10.34,6.85,9.19Z"/><path class="b" d="M198.62,78.12c4.01,.05,4.76-6.97,3.92-9.5-.92,1.47-3.34,3.77-4.25,6.02-1.31-2.04-4.11-3.85-5.29-5.12-.36,2.64,1.68,9.4,5.62,8.6Z"/><path class="b" d="M198.14,69.27c4.12-1.29,1.84-9.56-.07-11.78-1.75,2.26-3.33,10.48,.07,11.78Z"/><path class="b" d="M144.2,179.83c3.1-4.75-1.51-13.81-2.32-18.28-3.37,4-7.08,17.31,.25,20.14,2,8.51,17.26,6.55,22.21,3.48-4.89-1.65-14.42-8.42-20.14-5.35Z"/><circle class="b" cx="116.53" cy="182.31" r="5.67"/><path class="b" d="M102.44,64.87c4.34,3.54,9.72,5.42,15.28,5.42,1.67,0,3.35-.17,5.02-.51,11.04-2.26,19.06-12.3,19.06-23.93v-.36h-24.82v5.65h18.19c-1.18,4.48-4.05,8.26-8.11,10.69-4.29,2.56-9.35,3.26-14.23,1.95-7.96-2.13-13.59-9.72-13.39-18.05,.06-2.35,.56-4.63,1.5-6.79l.42-.97h-6.35l-.09,.23c-.63,1.62-1.37,4.68-1.37,7.98,0,7.27,3.24,14.08,8.9,18.7Z"/><rect class="b" x="71.6" y="80.94" width="5.89" height="31.42"/><polygon class="b" points="115.53 112.37 115.53 80.94 109.64 80.94 109.64 103.23 87.36 80.94 79.03 80.94 110.45 112.37 115.53 112.37"/><path class="b" d="M127.99,92.82v-11.88h-5.92v11.88c0,12.11,9.86,21.97,21.97,21.97s21.97-9.86,21.97-21.97v-11.88h-5.92v11.88c0,8.85-7.2,16.05-16.05,16.05s-16.05-7.2-16.05-16.05Z"/><polygon class="b" points="49.66 218.72 44.47 211.48 42.57 211.48 42.57 220.81 44.1 220.81 44.1 213.56 49.21 220.81 51.17 220.81 51.17 211.48 49.66 211.48 49.66 218.72"/><path class="b" d="M56.02,211.48l-3.89,9.33h1.6l1-2.43h4.21l1.02,2.43h1.59l-3.89-9.33h-1.65Zm-.59,5.26l1.43-3.43,1.4,3.43h-2.83Z"/><polygon class="b" points="61.03 212.96 63.63 212.96 63.63 220.81 65.15 220.81 65.15 212.96 67.7 212.96 67.7 211.48 61.03 211.48 61.03 212.96"/><rect class="b" x="69.27" y="211.48" width="1.5" height="9.33"/><path class="b" d="M77.18,211.38c-2.56,0-4.66,2.16-4.66,4.76s2.11,4.76,4.66,4.76,4.68-2.14,4.68-4.76-2.12-4.76-4.68-4.76Zm0,8.01c-1.7,0-3.16-1.43-3.16-3.25s1.45-3.23,3.16-3.23,3.17,1.43,3.17,3.23-1.47,3.25-3.17,3.25Z"/><polygon class="b" points="90.41 218.72 85.22 211.48 83.32 211.48 83.32 220.81 84.85 220.81 84.85 213.56 89.96 220.81 91.92 220.81 91.92 211.48 90.41 211.48 90.41 218.72"/><path class="b" d="M96.8,211.48l-3.89,9.33h1.6l1-2.43h4.21l1.02,2.43h1.59l-3.89-9.33h-1.65Zm-.59,5.26l1.43-3.43,1.4,3.43h-2.83Z"/><polygon class="b" points="105.07 211.48 103.56 211.48 103.56 220.81 109.57 220.81 109.57 219.32 105.07 219.32 105.07 211.48"/><path class="b" d="M119.82,217.06c0,1.32-1.04,2.31-2.22,2.31-1.25,0-2.23-.99-2.23-2.31v-5.58h-1.52v5.62c0,2.11,1.68,3.8,3.75,3.8,1.96,0,3.74-1.69,3.74-3.8v-5.62h-1.52v5.58Z"/><polygon class="b" points="130.42 218.72 125.23 211.48 123.32 211.48 123.32 220.81 124.85 220.81 124.85 213.56 129.97 220.81 131.92 220.81 131.92 211.48 130.42 211.48 130.42 218.72"/><rect class="b" x="133.98" y="211.48" width="1.5" height="9.33"/><polygon class="b" points="141.35 218.97 138.19 211.48 136.59 211.48 140.51 220.81 142.16 220.81 145.94 211.48 144.37 211.48 141.35 218.97"/><polygon class="b" points="146.82 220.81 153.2 220.81 153.2 219.32 148.31 219.32 148.31 216.76 152.8 216.76 152.8 215.27 148.31 215.27 148.31 212.96 153.2 212.96 153.2 211.48 146.82 211.48 146.82 220.81"/><path class="b" d="M161.71,214.54c0-1.77-1.29-3.06-2.9-3.06h-4.07v9.33h1.47v-3.12h1.82l2.27,3.12h1.86l-2.46-3.35c1.09-.48,1.94-1.4,2.02-2.92Zm-5.5,1.64v-3.16h2.44c.86,0,1.57,.7,1.57,1.57s-.7,1.59-1.57,1.59h-2.44Z"/><path class="b" d="M166.84,215.43l-.61-.18c-.35-.1-.54-.18-.74-.3-.19-.14-.33-.26-.44-.38-.19-.26-.26-.65-.13-.97,.19-.5,.64-.66,1.09-.73,.58-.06,1.24-.03,1.91,.38,.38,.21,.55,.39,.69,.61l1.33-.8c-.25-.43-.66-.84-1.22-1.17-1.03-.6-2.16-.66-2.91-.58-.65,.09-1.86,.5-2.34,1.68-.36,.89-.08,2.03,.41,2.61,.09,.09,.36,.36,.73,.61,.36,.25,.76,.4,1.19,.53l.66,.18c1.4,.31,1.72,.53,1.93,.75,.16,.15,.29,.39,.13,.86-.13,.21-.31,.41-.59,.58-.28,.13-.58,.24-.81,.26-.74,.1-1.24,.01-1.94-.39-.59-.34-.83-.78-.89-.97l-1.48,.53c.13,.34,.59,1.22,1.59,1.79,.97,.55,1.89,.71,2.92,.59,.43-.05,.99-.26,1.34-.44,.53-.3,1.05-.81,1.29-1.33,.46-1.17-.03-2.17-.45-2.59-.38-.39-1.02-.8-2.66-1.15Z"/><rect class="b" x="171.81" y="211.48" width="1.5" height="9.33"/><polygon class="b" points="174.73 212.96 177.32 212.96 177.32 220.81 178.84 220.81 178.84 212.96 181.4 212.96 181.4 211.48 174.73 211.48 174.73 212.96"/><polygon class="b" points="186.02 215.57 183.37 211.48 181.59 211.48 185.28 217.16 185.28 220.81 186.78 220.81 186.78 217.16 190.49 211.48 188.71 211.48 186.02 215.57"/><polygon class="b" points="85.04 196.44 82.36 200.53 79.7 196.44 77.93 196.44 81.62 202.12 81.62 205.77 83.11 205.77 83.11 202.12 86.82 196.44 85.04 196.44"/><polygon class="b" points="94.26 197.92 94.26 196.44 87.88 196.44 87.88 205.77 94.26 205.77 94.26 204.27 89.37 204.27 89.37 201.72 93.86 201.72 93.86 200.22 89.37 200.22 89.37 197.92 94.26 197.92"/><path class="b" d="M100,196.34c-2.56,0-4.66,2.16-4.66,4.76s2.11,4.76,4.66,4.76,4.68-2.14,4.68-4.76-2.12-4.76-4.68-4.76Zm0,8.01c-1.7,0-3.16-1.43-3.16-3.25s1.45-3.23,3.16-3.23,3.17,1.43,3.17,3.23-1.47,3.25-3.17,3.25Z"/><polygon class="b" points="114.77 196.44 113.26 196.44 113.26 203.67 108.07 196.44 106.17 196.44 106.17 205.77 107.7 205.77 107.7 198.52 112.81 205.77 114.77 205.77 114.77 196.44"/><path class="b" d="M130.53,200.39l-.61-.18c-.35-.1-.54-.18-.74-.3-.19-.14-.33-.26-.44-.38-.19-.26-.26-.65-.13-.97,.19-.5,.64-.66,1.09-.73,.58-.06,1.24-.03,1.91,.38,.38,.21,.55,.39,.69,.61l1.33-.8c-.25-.43-.66-.84-1.22-1.17-1.03-.6-2.16-.66-2.91-.58-.65,.09-1.86,.5-2.34,1.68-.36,.89-.07,2.03,.41,2.61,.09,.09,.36,.36,.73,.61,.36,.25,.76,.4,1.19,.53l.66,.18c1.4,.31,1.72,.53,1.93,.75,.16,.15,.29,.39,.13,.86-.13,.21-.31,.41-.59,.58-.28,.13-.58,.24-.81,.26-.74,.1-1.24,.01-1.94-.39-.59-.34-.83-.78-.89-.97l-1.48,.53c.13,.34,.59,1.22,1.59,1.79,.97,.55,1.89,.71,2.92,.59,.43-.05,.99-.26,1.34-.44,.53-.3,1.05-.81,1.29-1.33,.46-1.17-.03-2.17-.45-2.59-.38-.39-1.02-.8-2.66-1.15Z"/><path class="b" d="M141.07,203.33l1.02,2.43h1.59l-3.89-9.33h-1.65l-3.89,9.33h1.6l1-2.43h4.21Zm-2.09-5.06l1.4,3.43h-2.83l1.43-3.43Z"/><polygon class="b" points="151.82 203.67 146.63 196.44 144.73 196.44 144.73 205.77 146.25 205.77 146.25 198.52 151.37 205.77 153.32 205.77 153.32 196.44 151.82 196.44 151.82 203.67"/><path class="b" d="M73.65,205.87c2.32-.02,4.26-1.64,4.53-4.05,0,0,.06-.88,.01-1.19h-4.48v1.44h2.86c-.33,1.55-1.84,2.24-2.91,2.28-1.75,0-3.17-1.42-3.17-3.25s1.42-3.23,3.17-3.23c1.2,0,1.98,.66,2.36,1.09l1.09-1.08c-.58-.66-1.69-1.53-3.46-1.53-2.68,0-4.66,2.11-4.66,4.75s1.98,4.76,4.66,4.76Z"/><path class="b" d="M120.96,205.87c2.32-.02,4.26-1.64,4.52-4.05,0,0,.06-.88,.01-1.19h-4.48v1.44h2.86c-.33,1.55-1.84,2.24-2.91,2.28-1.75,0-3.17-1.42-3.17-3.25s1.42-3.23,3.17-3.23c1.2,0,1.98,.66,2.36,1.09l1.09-1.08c-.58-.66-1.69-1.53-3.46-1.53-2.68,0-4.66,2.11-4.66,4.75s1.98,4.76,4.66,4.76Z"/><path class="b" d="M159.51,197.87c1.2,0,1.98,.66,2.36,1.09l1.09-1.08c-.58-.66-1.69-1.53-3.46-1.53-2.68,0-4.66,2.11-4.66,4.75s1.98,4.76,4.66,4.76c2.32-.02,4.26-1.64,4.52-4.05,0,0,.06-.88,.01-1.19h-4.48v1.44h2.86c-.33,1.55-1.84,2.24-2.91,2.28-1.75,0-3.17-1.42-3.17-3.25s1.42-3.23,3.17-3.23Z"/></svg>