<?xml version="1.0" encoding="UTF-8"?><svg id="a" xmlns="http://www.w3.org/2000/svg" viewBox="0 0 434.67 106"><defs><style>.b{fill:#0098d8;}.c{fill:#485157;}</style></defs><g><path class="b" d="M174.34,24.37v7.4c0,9.67-7.87,17.53-17.53,17.53s-17.53-7.87-17.53-17.53v-7.4h-4.86v7.4c0,12.35,10.05,22.4,22.4,22.4s22.4-10.05,22.4-22.4v-2.76h14.04v38.75H22.13V29.02h14.27c-.18,.87-.22,1.92-.22,2.76,0,12.35,10.05,22.4,22.4,22.4s22.4-10.05,22.4-22.4v-.31h-22.71v4.64h17.24c-1.85,7.82-8.96,13.2-16.93,13.2-9.67,0-17.53-7.87-17.53-17.53,0-2.41,.49-4.76,1.45-6.97l.19-.43H17.27v48.03H198.12V24.37h-23.77Z"/><rect class="b" x="86.78" y="24.37" width="4.86" height="28.94"/><polygon class="b" points="127.51 53.31 127.51 24.37 122.64 24.37 122.64 45.87 101.15 24.37 94.27 24.37 123.21 53.31 127.51 53.31"/></g><g><g><g><path class="c" d="M220.6,73.84h-1.56l1.14-2.95-2.59-6.73h1.62l1.79,4.8,1.79-4.8h1.63l-3.81,9.69Z"/><path class="c" d="M227.96,64.11c1.94,0,2.79,1.72,2.81,1.78,.48,.91,.29,2.12,.29,2.12h-4.86c.19,.81,.98,1.35,1.77,1.35,.95,0,1.44-.72,1.44-.72l1.33,.57s-.86,1.55-2.78,1.55c-1.8,0-3.22-1.52-3.22-3.32s1.41-3.33,3.22-3.33Zm0,1.42c-.69,0-1.44,.45-1.77,1.21h3.46c-.34-.77-1-1.21-1.69-1.21Z"/><path class="c" d="M235.28,64.11c1.79,0,3.17,1.53,3.17,3.33s-1.37,3.33-3.17,3.33-3.17-1.53-3.17-3.33,1.39-3.33,3.17-3.33Zm1.78,3.33c0-1.08-.82-1.91-1.78-1.91s-1.78,.82-1.78,1.91,.82,1.92,1.78,1.92,1.78-.82,1.78-1.92Z"/><path class="c" d="M242.6,65.61c-.91,0-1.63,.67-1.6,1.56v3.55h-1.5v-6.57h1.5v.92c.37-.67,1.16-.92,1.75-.92,1.54,0,2.94,.89,2.94,2.79v3.78h-1.5v-3.55c0-.9-.49-1.56-1.59-1.56Z"/><path class="c" d="M249.9,64.14c.56,0,1.45,.2,1.98,1.01v-1.05h1.51v6.25c-.01,2.22-1.72,3.44-3.57,3.44-1.17,0-2.31-.57-2.93-1.48l1.27-.85c.44,.67,1.19,.89,1.65,.89,.76,0,2.04-.51,2.06-1.81v-.82c-.59,.81-1.41,1.06-1.98,1.06-1.77,0-3.17-1.42-3.17-3.33s1.4-3.3,3.17-3.3Zm1.87,3.29c0-1.05-.82-1.86-1.75-1.86s-1.74,.81-1.74,1.86,.81,1.9,1.74,1.9,1.75-.81,1.75-1.9Z"/><path class="c" d="M257.97,65.77c-.35-.24-.72-.27-1.06-.24-.29,.02-.49,.07-.61,.24-.08,.21-.05,.25,.04,.32,.04,.06,.06,.1,.23,.19,.18,.11,.32,.19,.47,.22l.4,.12c1.15,.31,1.61,.62,1.89,.92,.4,.44,.66,1.21,.25,1.99-.23,.4-.54,.65-.97,.89-.31,.15-.72,.26-1.03,.29-.74,.06-1.39-.1-2.04-.49-.69-.44-.98-1.08-1.05-1.22l1.39-.7c.09,.16,.2,.41,.49,.6,.42,.25,.64,.3,1.1,.26,.13,0,.27-.04,.42-.11,.21-.11,.27-.15,.32-.25,.08-.12,.06-.12-.02-.22-.11-.12-.27-.24-1.16-.46l-.42-.14c-.29-.07-.62-.24-.83-.39-.28-.16-.49-.36-.61-.49-.42-.46-.57-1.28-.27-2.01,.39-.76,1.2-1.05,1.87-1.12,.53-.05,1.36,.02,2.07,.49,.4,.26,.68,.6,.83,.85l-1.34,.8c-.09-.14-.16-.22-.35-.35Z"/><path class="c" d="M263.73,64.19c.72,0,1.45,.32,1.98,1.02v-1.06h1.51v6.57h-1.51v-.93c-.53,.71-1.26,1.03-1.98,1.03-1.77,0-3.17-1.53-3.17-3.32s1.4-3.32,3.17-3.32Zm1.91,3.32c-.01-1.08-.85-1.91-1.78-1.91s-1.78,.82-1.78,1.91,.83,1.9,1.78,1.9,1.77-.81,1.78-1.9Z"/><path class="c" d="M271.79,65.61c-.91,0-1.63,.67-1.6,1.56v3.55h-1.5v-6.57h1.5v.92c.37-.67,1.16-.92,1.75-.92,1.54,0,2.94,.89,2.94,2.79v3.78h-1.5v-3.55c0-.9-.49-1.56-1.59-1.56Z"/><path class="c" d="M279.09,64.14c.56,0,1.45,.2,1.98,1.01v-1.05h1.51v6.25c-.01,2.22-1.72,3.44-3.57,3.44-1.17,0-2.31-.57-2.93-1.48l1.27-.85c.44,.67,1.19,.89,1.65,.89,.76,0,2.04-.51,2.06-1.81v-.82c-.59,.81-1.41,1.06-1.98,1.06-1.77,0-3.17-1.42-3.17-3.33s1.4-3.3,3.17-3.3Zm1.87,3.29c0-1.05-.82-1.86-1.75-1.86s-1.74,.81-1.74,1.86,.81,1.9,1.74,1.9,1.75-.81,1.75-1.9Z"/><path class="c" d="M212.75,65.62v1.43h2.83c-.32,1.55-1.83,2.23-2.88,2.27-1.74,0-3.14-1.41-3.14-3.23s1.4-3.22,3.14-3.22c1.19,0,1.96,.66,2.34,1.09l1.08-1.08c-.58-.65-1.68-1.52-3.42-1.52-2.66,0-4.62,2.09-4.62,4.73s1.96,4.74,4.62,4.74c2.3-.02,4.22-1.63,4.48-4.03,0,0,.06-.87,.01-1.18h-4.44Z"/></g><g><path class="c" d="M295.81,70.73h-1.94l-5.06-7.21v7.21h-1.51v-9.28h1.89l5.14,7.19v-7.19h1.49v9.28Z"/><path class="c" d="M300.12,64.19c.71,0,1.43,.32,1.95,1.02v-1.06h1.49v6.57h-1.49v-.94c-.52,.71-1.24,1.03-1.95,1.03-1.74,0-3.12-1.53-3.12-3.32s1.38-3.32,3.12-3.32Zm1.88,3.32c-.01-1.08-.83-1.91-1.75-1.91s-1.75,.82-1.75,1.91,.82,1.9,1.75,1.9,1.74-.81,1.75-1.9Z"/><path class="c" d="M307.65,70.79c-1.08,0-2.06-1-2.06-2.13v-3.25h-1.13v-1.45h1.13v-2.14h1.54v2.14h1.72v1.45h-1.72v3.25c0,.4,.19,.59,.52,.59,.17,0,.24-.04,.41-.21l1.07,1.12c-.4,.37-.89,.64-1.48,.64Z"/><path class="c" d="M311.72,60.97v1.52h-1.51v-1.52h1.51Zm-1.48,3.13h1.45v6.66h-1.45v-6.66Z"/><path class="c" d="M316,64.11c1.76,0,3.12,1.53,3.12,3.33s-1.35,3.33-3.12,3.33-3.12-1.53-3.12-3.33,1.37-3.33,3.12-3.33Zm1.75,3.33c0-1.08-.81-1.91-1.75-1.91s-1.75,.82-1.75,1.91,.81,1.92,1.75,1.92,1.75-.82,1.75-1.92Z"/><path class="c" d="M323.23,65.61c-.89,0-1.6,.67-1.58,1.56v3.55h-1.48v-6.57h1.48v.92c.36-.67,1.14-.92,1.73-.92,1.51,0,2.89,.89,2.89,2.79v3.78h-1.48v-3.55c0-.9-.48-1.56-1.56-1.56Z"/><path class="c" d="M330.42,64.19c.71,0,1.43,.32,1.95,1.02v-1.06h1.49v6.57h-1.49v-.94c-.52,.71-1.24,1.03-1.95,1.03-1.74,0-3.12-1.53-3.12-3.32s1.38-3.32,3.12-3.32Zm1.88,3.32c-.01-1.08-.83-1.91-1.75-1.91s-1.75,.82-1.75,1.91,.82,1.9,1.75,1.9,1.74-.81,1.75-1.9Z"/><path class="c" d="M336.68,61.2v9.56h-1.48v-9.56h1.48Z"/></g><g><path class="c" d="M346.18,70.99c-2.05,0-3.71-1.68-3.71-3.78v-5.59h1.5v5.55c0,1.31,.97,2.29,2.21,2.29,1.17,0,2.2-.98,2.2-2.29v-5.55h1.5v5.59c0,2.09-1.76,3.78-3.7,3.78Z"/><path class="c" d="M354.36,65.78c-.89,0-1.6,.67-1.58,1.56v3.55h-1.48v-6.57h1.48v.92c.36-.67,1.14-.92,1.73-.92,1.51,0,2.89,.89,2.89,2.79v3.78h-1.48v-3.55c0-.9-.48-1.56-1.56-1.56Z"/><path class="c" d="M360.29,61.14v1.52h-1.51v-1.52h1.51Zm-1.48,3.13h1.45v6.66h-1.45v-6.66Z"/><path class="c" d="M365.29,70.89h-1.3l-2.76-6.57h1.63l1.81,4.63,1.81-4.63h1.63l-2.82,6.57Z"/><path class="c" d="M371.33,64.29c1.91,0,2.74,1.72,2.77,1.78,.47,.91,.29,2.12,.29,2.12h-4.78c.19,.81,.97,1.35,1.74,1.35,.93,0,1.42-.72,1.42-.72l1.3,.57s-.84,1.55-2.73,1.55c-1.78,0-3.17-1.52-3.17-3.32s1.39-3.33,3.17-3.33Zm0,1.42c-.68,0-1.42,.45-1.74,1.21h3.4c-.33-.77-.98-1.21-1.66-1.21Z"/><path class="c" d="M379.02,64.1v1.42c-1.18,0-1.95,1.05-1.95,1.91v3.53h-1.48v-6.86h1.48v1.18c.43-.82,1.38-1.18,1.95-1.18Z"/><path class="c" d="M382.81,65.94c-.35-.24-.71-.27-1.04-.24-.29,.02-.48,.07-.6,.24-.07,.21-.05,.25,.04,.32,.04,.06,.06,.1,.22,.19,.17,.11,.31,.19,.46,.22l.4,.12c1.13,.31,1.59,.62,1.86,.92,.4,.44,.65,1.21,.25,1.99-.22,.4-.53,.65-.96,.89-.31,.15-.71,.26-1.02,.29-.73,.06-1.37-.1-2.01-.49-.68-.44-.97-1.08-1.03-1.22l1.37-.7c.09,.16,.2,.41,.48,.6,.41,.25,.63,.3,1.08,.26,.12,0,.26-.04,.41-.11,.21-.11,.26-.15,.31-.25,.07-.12,.06-.12-.02-.22-.11-.12-.26-.24-1.14-.46l-.41-.14c-.29-.07-.61-.24-.82-.39-.27-.16-.48-.36-.6-.49-.41-.46-.56-1.28-.26-2.01,.39-.76,1.18-1.05,1.84-1.12,.52-.05,1.34,.02,2.04,.49,.4,.26,.67,.6,.82,.85l-1.32,.8c-.09-.14-.16-.22-.35-.35Z"/><path class="c" d="M387.23,61.14v1.52h-1.51v-1.52h1.51Zm-1.48,3.13h1.45v6.66h-1.45v-6.66Z"/><path class="c" d="M391.47,70.96c-1.08,0-2.06-1-2.06-2.13v-3.25h-1.13v-1.45h1.13v-2.14h1.54v2.14h1.72v1.45h-1.72v3.25c0,.4,.19,.59,.52,.59,.17,0,.24-.04,.41-.21l1.07,1.12c-.4,.37-.89,.64-1.48,.64Z"/><path class="c" d="M396.32,73.84h-1.54l1.12-2.96-2.55-6.73h1.59l1.76,4.8,1.76-4.8h1.6l-3.75,9.69Z"/></g></g><g><rect class="c" x="308.65" y="24.82" width="3.94" height="15.52"/><polygon class="c" points="373.24 49.86 400.2 49.86 400.2 46.57 390.11 46.57 390.11 35.89 386.17 35.89 386.17 46.57 382.79 46.57 382.79 35.89 378.84 35.89 378.84 46.57 373.24 46.57 373.24 49.86"/><polygon class="c" points="226.94 41.14 230.89 41.14 230.89 24.82 226.94 24.82 226.94 28.24 222.43 28.24 222.43 31.53 226.94 31.53 226.94 34.38 222.43 34.38 222.43 37.67 226.94 37.67 226.94 41.14"/><path class="c" d="M208,38.58l1.64,3c5.21-2.37,10.5-5.44,10.5-10.24v-5.85h-11.93v3.29h7.95v2.51c0,.98,0,3.27-8.16,7.29Z"/><path class="c" d="M221.7,42.02c-6.08,0-9.78,2.47-9.78,6.53s3.7,6.53,9.78,6.53,9.78-2.47,9.78-6.53-3.7-6.53-9.78-6.53Zm0,9.76c-3.61,0-5.81-1.22-5.81-3.23s2.2-3.23,5.81-3.23,5.81,1.22,5.81,3.23-2.2,3.23-5.81,3.23Z"/><path class="c" d="M247.71,42.02c-6.08,0-9.78,2.47-9.78,6.53s3.7,6.53,9.78,6.53,9.78-2.47,9.78-6.53-3.7-6.53-9.78-6.53Zm0,9.76c-3.61,0-5.81-1.22-5.81-3.23s2.2-3.23,5.81-3.23,5.81,1.22,5.81,3.23-2.2,3.23-5.81,3.23Z"/><polygon class="c" points="252.96 41.14 256.9 41.14 256.9 34.29 261.42 34.29 261.42 31 256.9 31 256.9 24.82 252.96 24.82 252.96 41.14"/><polygon class="c" points="364.49 40.66 368.43 40.66 368.43 34.29 372.95 34.29 372.95 31 368.43 31 368.43 24.82 364.49 24.82 364.49 40.66"/><path class="c" d="M296.19,54.5h16.4v-12.33h-3.94v3.57h-8.51v-3.57h-3.94v12.33Zm12.46-2.89h-8.51v-2.98h8.51v2.98Z"/><polygon class="c" points="290.69 40.24 303.88 40.24 303.88 37.11 294.64 37.11 294.64 34.23 303.88 34.23 303.88 25.24 290.69 25.24 290.69 28.37 299.94 28.37 299.94 31.1 290.69 31.1 290.69 40.24"/><polygon class="c" points="317.08 43.51 328.52 43.51 328.52 40.22 321.03 40.22 321.03 28.52 328.52 28.52 328.52 25.24 317.08 25.24 317.08 43.51"/><path class="c" d="M345.38,29.17h3.52l-.18,.15c-1.4,1.18-2.13,2.87-2.13,4.87,0,3.91,2.91,6.54,7.25,6.54s7.25-2.63,7.25-6.54c0-2-.74-3.69-2.13-4.87l-.18-.15h3.52v-3.29h-6.49v-3.42h-3.94v3.42h-6.49v3.29Zm8.46,8.3c-2.01,0-3.36-1.37-3.36-3.41s1.35-3.41,3.36-3.41,3.36,1.37,3.36,3.41-1.35,3.41-3.36,3.41Z"/><polygon class="c" points="338.28 54.5 342.22 54.5 342.22 24.82 338.28 24.82 338.28 33.98 335.41 33.98 335.41 24.82 331.46 24.82 331.46 54.5 335.41 54.5 335.41 37.27 338.28 37.27 338.28 54.5"/><polygon class="c" points="393.79 42.47 397.73 42.47 397.73 25.88 376.49 25.88 376.49 29.01 393.79 29.01 393.79 42.47"/><polygon class="c" points="364.49 54.5 368.43 54.5 368.43 43.21 351.17 43.21 351.17 46.34 364.49 46.34 364.49 54.5"/><polygon class="c" points="280.34 54.5 284.29 54.5 284.29 43.53 275.3 43.53 275.3 39.39 287.25 39.39 287.25 36.11 283.57 36.11 283.57 25.48 264.87 25.48 264.87 28.76 279.62 28.76 279.62 36.11 261.91 36.11 261.91 39.39 271.35 39.39 271.35 43.53 264.87 43.53 264.87 46.81 280.34 46.81 280.34 54.5"/><path class="c" d="M233.33,37.77l1.98,3.05c3.04-1.98,5.49-3.62,7.02-5.24l.05-.06,.06,.05,6.15,5.22,2.51-2.93-6.77-5.75v-.05c.24-.87,.35-1.84,.35-2.96v-3.61h-4.06v3.61c0,3.05-.31,4.14-7.28,8.68Z"/></g></g></svg>