<?xml version="1.0" encoding="utf-8"?>
<!-- Generator: Adobe Illustrator 26.2.1, SVG Export Plug-In . SVG Version: 6.00 Build 0)  -->
<svg version="1.1" id="레이어_1" xmlns="http://www.w3.org/2000/svg" xmlns:xlink="http://www.w3.org/1999/xlink" x="0px"
	 y="0px" viewBox="0 0 699 154" style="enable-background:new 0 0 699 154;" xml:space="preserve">
<path d="M209.5,110.9h13V47.7h-19.6l-14,43.5h-0.2L174,47.7h-19.6v63.2h13V66.6h0.2l15.5,44.4h10.7l15.5-44.8h0.2V110.9z
	 M228.3,110.9h48V99.2h-34.1V83.7h30.6V72.9h-30.6V59.4h33.4V47.7h-47.3V110.9z M311.6,59.4h19V47.7h-51.8v11.7h19v51.5h13.9V59.4z
	 M360.1,86.5h-16.4l8.2-23.2h0.2L360.1,86.5z M383,110.9l-23.6-63.2h-14.3l-24,63.2h14.1l5-14.1h23.6l4.8,14.1H383z"/>
<polygon points="383.4,85.2 417.1,85.2 417.1,75.5 379.8,75.5 "/>
<g>
	<path d="M424.1,110.9H438V47.7h-13.9V110.9z M475.3,110.9h12.6V82.8c0-11.3-3.4-18.9-16.7-18.9c-5.3,0-10.8,2.5-14,7.6h-0.3v-6.4
		h-12v45.8h12.6v-24c0-9.3,2.9-13.1,9.7-13.1c5.8,0,8.1,3.7,8.1,11.2V110.9z M504.8,76.6c0-3.7,4.2-4.2,7-4.2c4.5,0,8.2,1.3,8.6,6.2
		h12c-1-11.2-10.2-14.6-20.2-14.6c-9.8,0-19.9,3-19.9,14.7c0,8.1,7.3,10.6,14.5,12.2c9,1.9,14.3,3.3,14.3,7.1c0,4.4-4.6,5.8-8.2,5.8
		c-5,0-9.6-2.2-9.7-7.7h-12c0.5,12.1,10.9,16.1,21.5,16.1c10.4,0,20.9-3.9,20.9-15.9c0-8.5-7.2-11.2-14.5-12.8
		C511.9,81.7,504.8,81.1,504.8,76.6 M537.5,58.1h12.6V47.7h-12.6V58.1z M537.5,110.9h12.6V65.2h-12.6V110.9z M587.8,87.5
		c0,6.6-3.5,12.7-10.7,12.7c-7.7,0-10.2-7.2-10.2-13.7c0-6.8,3.1-13,10.2-13C585.2,73.4,587.8,80,587.8,87.5 M599.7,108V65.2h-12
		v6.1h-0.2c-3-5.3-7.6-7.4-13.6-7.4c-12.8,0-19.7,10.8-19.7,22.7c0,12.6,5.8,23,19.6,23c5.5,0,11-2.3,13.7-7.1h0.2v6
		c0.1,6.6-3.1,11.3-10.1,11.3c-4.4,0-8.2-1.6-9.4-6.3h-12.5c0.6,10.4,11.2,14.7,20.2,14.7C597.1,128.3,599.7,115.5,599.7,108
		 M636.2,110.9h12.6V82.8c0-11.3-3.4-18.9-16.7-18.9c-4.7,0-10.2,2.5-13.4,7.6h-0.3V47.7h-12.6v63.2h12.6v-24
		c0-9.3,2.9-13.1,9.7-13.1c5.8,0,8.1,3.7,8.1,11.2V110.9z M670,96.2V73.6h9.2v-8.4H670V51.4h-12.6v13.7h-7.6v8.4h7.6v27
		c0,9.1,6.7,10.9,14.4,10.9c2.5,0,5.2-0.1,7.3-0.4v-9.8c-1.3,0.3-2.6,0.4-3.9,0.4C671.1,101.5,670,100.5,670,96.2"/>
	<path d="M130.1,85.3c-3-2.8-7-4.1-10.8-3.9c-2.4,0.1-4.8-1-6.2-3l-0.5-0.7c-1.4-2-1.5-4.7-0.6-6.9c2.6-6,1-13.4-4.8-17.8
		c-5.2-3.9-12.6-3.9-17.8,0c-5.8,4.4-7.4,11.7-4.8,17.8c1,2.3,0.8,4.9-0.6,6.9l-0.5,0.7c-1.4,2-3.7,3.1-6.1,3c-0.5,0-1.1,0-1.6,0
		c-2.4,0.1-4.7-1-6.1-3l-0.5-0.7c-1.4-2-1.5-4.7-0.6-6.9c2.6-6,1-13.4-4.8-17.8c-5.2-3.9-12.6-3.9-17.8,0
		c-5.8,4.4-7.4,11.7-4.8,17.8c1,2.3,0.8,4.9-0.6,6.9l-0.5,0.7c-1.4,2-3.7,3.1-6.2,3c-3.9-0.2-7.8,1.1-10.8,3.9
		c-6,5.6-6.3,15.4-0.6,21.3c5.8,6,15.3,6,21.2,0.2c4.5-4.5,5.5-11.1,3-16.6c-1-2.2-0.7-4.7,0.7-6.7l0.5-0.7c1.4-2,3.7-3.1,6.1-3
		c0.5,0,1.1,0,1.6,0c2.4-0.1,4.7,1,6.1,3l0.5,0.7c1.4,2,1.5,4.7,0.6,6.9c-2.6,6-1,13.4,4.8,17.8c5.2,3.9,12.6,3.9,17.8,0
		c5.8-4.4,7.4-11.7,4.8-17.8c-1-2.3-0.8-4.9,0.6-6.9l0.5-0.7c1.4-2,3.7-3.1,6.1-3c0.5,0,1.1,0,1.6,0c2.4-0.1,4.7,1,6.1,3l0.5,0.7
		c1.4,2,1.6,4.5,0.7,6.7c-2.5,5.5-1.4,12.1,3,16.6c5.9,5.9,15.4,5.8,21.2-0.2C136.3,100.7,136.1,90.9,130.1,85.3"/>
</g>
</svg>
